# xmcd
#
# Track frame offsets:
#	150
#	14689
#	32172
#	49220
#	64238
#	78158
#	93461
#	109277
#	123934
#	136323
#	149812
#	170951
#
# Disc length: 2486 seconds
#
# Revision: 1
# Processed by: cddbd v1.5.2PL0 Copyright (c) Steve Scherf et al.
# Submitted via: EasyCDDAExtractor 16.0.6.1
#
DISCID=b509b40c
DTITLE=C.W. Stoneking - Gon' Boogaloo
DYEAR=2014
DGENRE=Blues
TTITLE0=How Long
TTITLE1=The Zombie
TTITLE2=Get On The Floor 
TTITLE3=The Thing I Done
TTITLE4=Tomorrow Gon' Be Too Late
TTITLE5=Mama Got The Blues
TTITLE6=Goin' Back South
TTITLE7=The Jungle Swing
TTITLE8=Good Luck Charm 
TTITLE9=I'm The Jungle Man
TTITLE10=On A Deset Isle 
TTITLE11=We Gon' Boogaloo
EXTD=
EXTT0=
EXTT1=
EXTT2=
EXTT3=
EXTT4=
EXTT5=
EXTT6=
EXTT7=
EXTT8=
EXTT9=
EXTT10=
EXTT11=
PLAYORDER=
